<svg xmlns="http://www.w3.org/2000/svg" width="48" height="48" viewBox="0 0 48 48" fill="none">
  <rect width="48" height="48" rx="8" fill="#F0F2F5"/>
  <path d="M24 12C17.373 12 12 17.373 12 24C12 30.627 17.373 36 24 36C30.627 36 36 30.627 36 24C36 17.373 30.627 12 24 12ZM24 34C18.486 34 14 29.514 14 24C14 18.486 18.486 14 24 14C29.514 14 34 18.486 34 24C34 29.514 29.514 34 24 34Z" fill="#A0AEC0"/>
  <path d="M25 20H23V28H25V20Z" fill="#A0AEC0"/>
  <path d="M25 16H23V18H25V16Z" fill="#A0AEC0"/>
</svg> 